<?xml version="1.0" encoding="UTF-8"?> <!-- Generator: Adobe Illustrator 25.0.0, SVG Export Plug-In . SVG Version: 6.00 Build 0) --> <svg xmlns="http://www.w3.org/2000/svg" xmlns:xlink="http://www.w3.org/1999/xlink" version="1.1" id="Layer_1" x="0px" y="0px" viewBox="0 0 400 245" style="enable-background:new 0 0 400 245;" xml:space="preserve"> <style type="text/css"> .st0{fill:#326DE6;} .st1{fill:#FFFFFF;} </style> <g> <path id="path10349" class="st0" d="M64.1,103.8c-0.4-1.3-1.4-2.3-2.6-2.9L37.3,89.2c-0.6-0.3-1.4-0.4-2-0.4c-0.6,0-1.4,0-2,0.2 L9,100.7c-1.2,0.6-2.1,1.6-2.4,2.9l-6,26.2c-0.2,1.4,0.1,2.7,0.9,3.8l16.8,20.8c1,1,2.3,1.6,3.7,1.7h26.8c1.4,0.2,2.8-0.5,3.7-1.7 l16.8-20.8c0.8-1.1,1.1-2.5,1-3.8L64.1,103.8L64.1,103.8z"></path> <path id="path10351" class="st1" d="M60.4,128.8L60.4,128.8c-0.1,0-0.2,0-0.2-0.1c0-0.1-0.2-0.1-0.3-0.1c-0.3-0.1-0.6-0.1-1-0.1 c-0.2,0-0.3,0-0.5-0.1h-0.1c-0.9-0.1-1.8-0.2-2.7-0.5c-0.2-0.1-0.5-0.3-0.6-0.6c0.1,0,0,0,0,0l0,0l-0.6-0.2c0.3-2.3,0.2-4.7-0.3-7 c-0.6-2.3-1.5-4.5-2.8-6.5l0.5-0.5l0,0v-0.1c0-0.2,0.1-0.6,0.2-0.7c0.7-0.6,1.4-1.1,2.2-1.6l0,0c0.2-0.1,0.3-0.2,0.5-0.2 c0.3-0.2,0.6-0.3,0.9-0.5c0.1-0.1,0.2-0.1,0.2-0.2c0.1-0.1,0-0.1,0-0.2l0,0c0.7-0.6,0.9-1.5,0.3-2.2c-0.2-0.3-0.7-0.6-1.1-0.6 s-0.8,0.2-1.1,0.4l0,0l-0.1,0.1c-0.1,0.1-0.2,0.2-0.2,0.2c-0.2,0.2-0.5,0.5-0.6,0.7c-0.1,0.2-0.2,0.2-0.3,0.3l0,0 c-0.6,0.6-1.3,1.3-2,1.8c-0.2,0.1-0.3,0.2-0.5,0.2c-0.1,0-0.2,0-0.3-0.1h-0.1l-0.6,0.4c-0.6-0.6-1.4-1.3-2-1.9 c-2.9-2.3-6.6-3.7-10.4-4.1l-0.1-0.6l0,0v0.1c-0.2-0.2-0.3-0.4-0.4-0.6c0-0.9,0-1.8,0.2-2.7v-0.1c0-0.2,0.1-0.3,0.1-0.5 c0.1-0.3,0.1-0.6,0.2-1V99l0,0c0.1-0.8-0.6-1.6-1.4-1.7c-0.5-0.1-1,0.2-1.4,0.6c-0.3,0.3-0.5,0.7-0.5,1.1l0,0v0.4 c0,0.3,0.1,0.6,0.2,1c0.1,0.2,0.1,0.3,0.1,0.5v0.1c0.2,0.9,0.2,1.8,0.2,2.7c-0.1,0.2-0.2,0.5-0.4,0.6v0.2l0,0l-0.1,0.6 c-0.9,0.1-1.8,0.2-2.7,0.4c-3.7,0.8-7.2,2.8-9.8,5.6l-0.5-0.3h-0.1c-0.1,0-0.2,0.1-0.3,0.1c-0.2,0-0.3-0.1-0.5-0.2 c-0.7-0.6-1.4-1.2-2-1.8l0,0c-0.1-0.2-0.2-0.2-0.3-0.3c-0.2-0.2-0.4-0.5-0.6-0.7c-0.1-0.1-0.2-0.1-0.2-0.2 c-0.1-0.1-0.1-0.1-0.1-0.1l0,0c-0.3-0.2-0.7-0.4-1.1-0.4c-0.5,0-0.9,0.2-1.1,0.6c-0.5,0.7-0.3,1.7,0.3,2.2l0,0 c0.1,0,0.1,0.1,0.1,0.1s0.2,0.2,0.2,0.2c0.2,0.2,0.6,0.3,0.9,0.5c0.2,0.1,0.3,0.2,0.5,0.2l0,0c0.8,0.5,1.6,1,2.2,1.6 c0.2,0.2,0.3,0.5,0.2,0.7v-0.1l0,0l0.5,0.5c-0.1,0.2-0.2,0.2-0.2,0.4c-2.5,3.9-3.5,8.5-2.8,13.1l-0.6,0.2l0,0 c0,0.1-0.1,0.1-0.1,0.1c-0.1,0.2-0.3,0.4-0.6,0.6c-0.9,0.2-1.8,0.4-2.7,0.5l0,0c-0.2,0-0.3,0-0.5,0.1c-0.3,0-0.6,0.1-1,0.1 c-0.1,0-0.2,0.1-0.3,0.1c-0.1,0-0.1,0-0.2,0.1l0,0c-0.9,0.2-1.4,1-1.3,1.8l0,0c0.2,0.7,0.9,1.2,1.6,1.1c0.2,0,0.2,0,0.4-0.1l0,0 c0.1,0,0.1,0,0.1-0.1c0-0.1,0.2,0,0.3,0c0.3-0.1,0.6-0.2,0.9-0.3c0.2-0.1,0.3-0.2,0.5-0.2h0.1c0.9-0.3,1.7-0.6,2.6-0.7h0.1 c0.2,0,0.5,0.1,0.6,0.2c0.1,0,0.1,0.1,0.1,0.1l0,0l0.7-0.1c1.2,3.7,3.4,6.9,6.5,9.3c0.7,0.6,1.4,1,2.2,1.4l-0.4,0.6l0,0 c0,0.1,0.1,0.1,0.1,0.1c0.2,0.2,0.2,0.6,0.1,0.8c-0.3,0.8-0.8,1.6-1.3,2.3v0.1c-0.1,0.2-0.2,0.2-0.3,0.4s-0.3,0.5-0.6,0.8 c-0.1,0.1-0.1,0.2-0.2,0.2c0,0,0,0.1-0.1,0.1l0,0c-0.4,0.8-0.1,1.8,0.6,2.2c0.2,0.1,0.4,0.2,0.6,0.2c0.6,0,1.2-0.4,1.5-1l0,0 c0,0,0-0.1,0.1-0.1c0-0.1,0.1-0.2,0.2-0.2c0.1-0.3,0.2-0.6,0.3-0.9l0.2-0.5l0,0c0.2-0.9,0.6-1.7,1-2.5c0.2-0.2,0.4-0.4,0.6-0.5 c0.1,0,0.1,0,0.1-0.1l0,0l0.3-0.6c2.2,0.9,4.5,1.3,6.9,1.3c1.4,0,2.9-0.2,4.3-0.6c0.9-0.2,1.8-0.5,2.6-0.7l0.3,0.6l0,0 c0.1,0,0.1,0,0.1,0.1c0.2,0.1,0.5,0.2,0.6,0.5c0.4,0.8,0.8,1.6,1,2.5v0.1l0.2,0.5c0.1,0.3,0.2,0.6,0.3,0.9c0.1,0.1,0.1,0.2,0.2,0.2 c0,0,0,0.1,0.1,0.1l0,0c0.3,0.6,0.9,1,1.5,1c0.2,0,0.4-0.1,0.6-0.2c0.3-0.2,0.6-0.5,0.7-0.9c0.1-0.4,0.1-0.8-0.1-1.2l0,0 c0-0.1-0.1-0.1-0.1-0.1c0-0.1-0.1-0.2-0.2-0.2c-0.2-0.3-0.3-0.6-0.6-0.8c-0.1-0.2-0.2-0.2-0.3-0.4V145c-0.6-0.7-1-1.5-1.3-2.3 c-0.1-0.2-0.1-0.6,0.1-0.8c0-0.1,0.1-0.1,0.1-0.1l0,0l-0.2-0.6c4.1-2.5,7.2-6.3,8.6-10.8l0.6,0.1l0,0c0.1,0,0.1-0.1,0.1-0.1 c0.2-0.2,0.4-0.2,0.6-0.2h0.1c0.9,0.2,1.8,0.4,2.6,0.7H58c0.2,0.1,0.3,0.2,0.5,0.2c0.3,0.2,0.6,0.3,0.9,0.4c0.1,0,0.2,0.1,0.3,0.1 c0.1,0,0.1,0,0.2,0.1l0,0c0.2,0.1,0.2,0.1,0.4,0.1c0.7,0,1.4-0.5,1.6-1.1C61.7,129.6,61.1,129,60.4,128.8L60.4,128.8z M37.3,126.4 l-2.2,1l-2.2-1l-0.6-2.3l1.5-1.9h2.4l1.5,1.9L37.3,126.4z M50.3,121.2c0.4,1.7,0.5,3.3,0.3,5l-7.6-2.2l0,0c-0.7-0.2-1.1-0.9-1-1.6 c0.1-0.2,0.2-0.4,0.3-0.6l6-5.4C49.3,117.9,49.9,119.5,50.3,121.2z M46,113.5l-6.5,4.6c-0.6,0.3-1.4,0.2-1.8-0.3 c-0.2-0.2-0.2-0.3-0.2-0.6l-0.5-8C40.5,109.6,43.6,111.1,46,113.5C46,113.5,46,113.5,46,113.5z M31.6,109.5l1.6-0.3l-0.4,8l0,0 c0,0.7-0.6,1.3-1.4,1.3c-0.2,0-0.4-0.1-0.6-0.2l-6.6-4.7C26.3,111.5,28.8,110.1,31.6,109.5z M21.9,116.5l5.9,5.3l0,0 c0.6,0.5,0.6,1.3,0.2,1.8c-0.2,0.2-0.3,0.3-0.6,0.4l-7.7,2.2C19.3,122.8,20.1,119.4,21.9,116.5z M20.5,129.9l7.9-1.4 c0.6,0,1.3,0.4,1.4,1c0.1,0.2,0.1,0.6-0.1,0.8l0,0l-3,7.3C23.9,135.9,21.7,133.1,20.5,129.9z M38.6,139.8c-1.1,0.2-2.2,0.4-3.4,0.4 c-1.7,0-3.4-0.3-5-0.8l3.9-7.1c0.4-0.5,1-0.6,1.6-0.3c0.2,0.2,0.4,0.3,0.6,0.6l0,0l3.8,6.9C39.7,139.6,39.2,139.7,38.6,139.8z M48.3,132.9c-1.2,1.9-2.9,3.6-4.8,4.8l-3.1-7.5c-0.2-0.6,0.2-1.3,0.7-1.5c0.2-0.1,0.5-0.2,0.7-0.2l8,1.4 C49.5,131,49,132,48.3,132.9z"></path> <path id="path3003" d="M386.6,138.6c1.1,0.1,2.3-0.1,3.3-0.5c0.6-0.3,1-1,1-1.8c-0.1-0.8-0.6-1.5-1.3-1.8c-1.2-0.7-2.6-1.4-3.9-1.8 c-1.4-0.5-2.6-1-3.7-1.6c-1-0.5-1.9-1.1-2.8-1.9c-0.8-0.8-1.4-1.7-1.8-2.7c-0.5-1.2-0.6-2.5-0.6-3.7c-0.1-2.6,1.1-5.2,3.2-6.8 c2.2-1.7,5-2.5,8.7-2.5c1.8,0,3.6,0.2,5.3,0.6c1.4,0.2,2.7,0.6,4.1,1l-1.5,6.8c-1.1-0.4-2.2-0.6-3.3-1c-1.3-0.3-2.6-0.4-3.9-0.4 c-2.7,0-4.1,0.7-4.1,2.2c0,0.3,0.1,0.6,0.2,1c0.2,0.3,0.4,0.6,0.7,0.8c0.3,0.2,0.8,0.5,1.4,0.8c0.6,0.3,1.4,0.6,2.3,1 c1.6,0.6,3.2,1.3,4.6,2.1c1.1,0.6,2.1,1.3,2.9,2.2c0.7,0.7,1.2,1.6,1.5,2.6c0.3,1.1,0.5,2.2,0.5,3.3c0.2,2.7-1.1,5.3-3.4,6.9 c-2.2,1.5-5.4,2.3-9.6,2.3c-2.3,0.1-4.5-0.2-6.8-0.7c-1.3-0.3-2.5-0.7-3.7-1.1l1.4-7c1.4,0.6,2.9,1,4.5,1.4 C383.5,138.5,385,138.6,386.6,138.6 M342.7,129.9c-0.1-2.4,0.4-4.8,1.2-7c0.7-1.9,1.8-3.6,3.3-5.1c1.4-1.4,2.9-2.4,4.6-3 c1.8-0.7,3.6-1,5.4-1c4.3,0,7.7,1.4,10.2,4c2.5,2.6,3.7,6.5,3.7,11.6c0,0.5,0,1-0.1,1.7c0,0.6-0.1,1.1-0.1,1.6h-19.4 c0.2,1.7,1,3.3,2.5,4.2c1.8,1.1,3.8,1.7,5.9,1.6c1.5,0,3.1-0.2,4.6-0.4c1.3-0.2,2.6-0.6,3.7-1.2l1.2,7c-0.6,0.3-1.2,0.5-1.8,0.7 c-0.9,0.2-1.8,0.5-2.6,0.6c-1,0.2-1.9,0.3-3,0.5c-1,0.1-2.2,0.2-3.3,0.2c-2.5,0.1-4.9-0.3-7.2-1.2c-1.9-0.7-3.6-1.8-5-3.3 c-1.4-1.4-2.3-3.2-2.9-5C343,134.1,342.7,131.9,342.7,129.9 M362.9,126.6c0-0.7-0.2-1.4-0.4-2.2c-0.2-0.7-0.6-1.3-1-1.8 c-0.5-0.6-1-1-1.7-1.4c-0.8-0.4-1.6-0.6-2.5-0.6c-0.9,0-1.7,0.2-2.5,0.6c-0.6,0.3-1.3,0.7-1.8,1.3c-0.5,0.6-0.9,1.2-1.1,1.9 c-0.2,0.7-0.4,1.4-0.5,2.2H362.9 M319.4,106.8l8.6-1.4v8.9h10.4v7.2H328v10.7c-0.1,1.5,0.2,3,1,4.3c0.6,1,1.9,1.6,3.9,1.6 c1,0,1.9-0.1,2.8-0.2c1-0.2,1.8-0.4,2.7-0.7l1.2,6.7c-1.1,0.5-2.3,0.8-3.5,1.1c-1.5,0.3-3.1,0.5-4.7,0.5c-2,0.1-4-0.2-5.8-1 c-1.4-0.6-2.7-1.5-3.7-2.6c-1-1.2-1.6-2.6-2-4.1c-0.4-1.8-0.6-3.6-0.5-5.3V106.8 M284.5,129.9c-0.1-2.4,0.4-4.8,1.2-7 c0.7-1.9,1.8-3.6,3.3-5.1c1.4-1.4,2.9-2.4,4.6-3c1.8-0.7,3.6-1,5.4-1c4.3,0,7.7,1.4,10.2,4c2.5,2.6,3.7,6.5,3.7,11.6 c0,0.5,0,1-0.1,1.7c-0.1,0.6-0.1,1.1-0.1,1.6h-19.5c0.2,1.7,1,3.3,2.5,4.2c1.8,1.1,3.8,1.7,5.9,1.6c1.5,0,3.1-0.2,4.6-0.4 c1.3-0.2,2.6-0.6,3.8-1.2l1.2,7c-0.6,0.3-1.2,0.5-1.8,0.7c-0.9,0.2-1.8,0.5-2.6,0.6c-1,0.2-1.9,0.3-3,0.5c-1,0.1-2.2,0.2-3.3,0.2 c-2.5,0.1-4.9-0.3-7.2-1.2c-1.9-0.7-3.6-1.8-5-3.3c-1.4-1.4-2.3-3.2-2.9-5C284.8,134.1,284.5,131.9,284.5,129.9 M304.7,126.6 c0-0.7-0.2-1.4-0.4-2.2c-0.2-0.7-0.6-1.3-1-1.8c-0.5-0.6-1-1-1.7-1.4c-0.8-0.4-1.6-0.6-2.5-0.6c-0.9,0-1.7,0.2-2.5,0.6 c-0.6,0.3-1.2,0.7-1.7,1.3c-0.5,0.6-0.9,1.2-1.1,1.9c-0.2,0.7-0.4,1.4-0.5,2.2H304.7 M251.9,115.4c1.8-0.5,3.7-0.9,5.7-1.2 c2.4-0.4,4.9-0.6,7.3-0.6c2.2-0.1,4.3,0.3,6.4,1c1.6,0.6,3,1.5,4.1,2.8c1,1.3,1.8,2.8,2.2,4.4c0.5,1.8,0.6,3.7,0.6,5.7v17.1h-8.5 v-16c0-2.8-0.4-4.7-1.1-5.9c-0.7-1.1-2.1-1.8-4.1-1.8c-0.6,0-1.3,0-2,0.1c-0.7,0-1.3,0.1-1.8,0.2v23.4h-8.6L251.9,115.4 M245.8,122 c-0.8-0.2-1.7-0.4-2.7-0.6c-1.1-0.2-2.2-0.3-3.3-0.3c-0.6,0-1.3,0.1-2,0.2c-0.6,0.1-1.1,0.2-1.7,0.3v23.2h-8.6V116 c1.8-0.6,3.6-1.1,5.4-1.5c2.3-0.6,4.7-0.8,7-0.7c0.6,0,1.1,0.1,1.7,0.1c0.6,0,1.3,0.1,2,0.2c0.6,0.1,1.3,0.2,2,0.3 c0.6,0.1,1.1,0.2,1.7,0.5L245.8,122 M192.3,129.9c-0.1-2.4,0.4-4.8,1.2-7c0.7-1.9,1.8-3.6,3.3-5.1c1.4-1.4,2.9-2.4,4.6-3 c1.8-0.7,3.6-1,5.4-1c4.3,0,7.7,1.4,10.2,4c2.5,2.6,3.7,6.5,3.7,11.6c0,0.5,0,1-0.1,1.7s-0.1,1.1-0.1,1.6h-19.5 c0.2,1.7,1,3.3,2.5,4.2c1.8,1.1,3.8,1.7,5.9,1.6c1.5,0,3.1-0.2,4.6-0.4c1.3-0.2,2.6-0.6,3.7-1.1l1.2,7c-0.6,0.3-1.2,0.5-1.8,0.7 c-0.9,0.2-1.8,0.5-2.6,0.6c-1,0.2-1.9,0.3-3,0.5c-1,0.1-2.2,0.2-3.3,0.2c-2.5,0.1-4.9-0.3-7.2-1.2c-1.9-0.7-3.6-1.8-5-3.3 c-1.4-1.4-2.3-3.2-2.9-5C192.7,134.1,192.3,132,192.3,129.9 M212.6,126.6c0-0.7-0.2-1.4-0.4-2.2c-0.2-0.7-0.6-1.3-1-1.8 c-0.5-0.6-1-1-1.7-1.4c-0.8-0.4-1.6-0.6-2.5-0.6s-1.7,0.2-2.5,0.6c-0.6,0.3-1.3,0.7-1.8,1.3c-0.5,0.6-0.9,1.2-1.1,1.9 c-0.2,0.7-0.4,1.4-0.5,2.2H212.6 M178.4,129.4c0-5.6-2.1-8.3-6.1-8.3c-0.9,0-1.8,0.1-2.6,0.3c-0.7,0.2-1.4,0.5-2.1,0.9v15.6 c0.4,0.1,1,0.2,1.6,0.2c0.6,0.1,1.4,0.1,2.2,0.1c2.1,0.2,4.1-0.7,5.3-2.4C177.8,133.9,178.5,131.7,178.4,129.4 M187.2,129.7 c0,2.2-0.3,4.5-1.1,6.6c-0.6,1.9-1.7,3.6-3,5c-1.4,1.4-3.1,2.6-4.9,3.3c-2.2,0.8-4.4,1.1-6.7,1.1c-1,0-2.2-0.1-3.3-0.2 s-2.2-0.2-3.3-0.3c-1-0.2-2.1-0.3-3.1-0.6c-1-0.2-1.9-0.4-2.6-0.7v-42.6l8.6-1.4v15.1c1-0.4,2-0.7,3-1c1.1-0.2,2.2-0.3,3.3-0.3 c2,0,3.9,0.3,5.7,1.2c1.6,0.7,3,1.8,4.1,3.2c1.2,1.5,2.1,3.2,2.6,5C186.9,125.2,187.2,127.5,187.2,129.7 M150.8,143.7 c-1.8,0.5-3.7,0.9-5.7,1.1c-2.4,0.4-4.9,0.6-7.3,0.6c-2.2,0.1-4.4-0.3-6.5-1c-1.6-0.6-2.9-1.6-4.1-2.9c-1-1.4-1.8-2.9-2.2-4.5 c-0.5-1.8-0.6-3.8-0.6-5.7v-16.8h8.6v15.9c0,2.8,0.4,4.8,1.1,6c0.7,1.2,2.1,1.8,4.1,1.8c0.6,0,1.3,0,2-0.1c0.7-0.1,1.3-0.1,1.8-0.2 v-23.3h8.6V143.7 M100.6,125.4c0.9-1,1.7-1.9,2.6-2.9c0.9-1,1.8-2,2.6-2.9c0.9-1,1.7-1.9,2.4-2.8c0.7-0.9,1.4-1.7,2-2.3h10.2 c-2.1,2.3-4.1,4.6-6,6.8c-2,2.2-4.1,4.4-6.4,6.6c1.3,1.2,2.5,2.4,3.6,3.7c1.2,1.4,2.4,2.9,3.6,4.5c1.1,1.5,2.2,3.1,3.2,4.6 c1,1.5,1.8,2.9,2.4,4.2H111c-0.6-1-1.4-2.1-2.2-3.3c-0.8-1.2-1.7-2.4-2.5-3.7c-0.9-1.2-1.8-2.4-2.9-3.5c-0.9-1-1.8-2-2.9-2.8V145 H92v-43.7l8.6-1.4V125.4"></path> </g> </svg> 